# xmcd
#
# Track frame offsets: 
#        150
#        16222
#        30422
#        44021
#        62256
#        76840
#        90987
#        106474
#        123783
#        139929
#
# Disc length: 2101 seconds
#
# Revision: 0
# Processed by: cddbd v1.5.1PL0 Copyright (c) Steve Scherf et al.
# Submitted via: ExactAudioCopy v0.95a3
#
DISCID=6f08330a
DTITLE=Trace Adkins - Dreamin' Out Loud
DYEAR=1996
DGENRE=Country
TTITLE0=There's A Girl In Texas
TTITLE1=I Left Something Turned On At Home
TTITLE2=Every Light In The House
TTITLE3=(This Ain't) No Thinkin' Thing
TTITLE4=Dreamin' Out Loud
TTITLE5=If I Fall (You're Goin' With Me)
TTITLE6=It Was You
TTITLE7=I Can Only Love You Like A Man
TTITLE8=634-5789
TTITLE9=A Bad Way Of Saying Goodbye
EXTD=
EXTT0=
EXTT1=
EXTT2=
EXTT3=
EXTT4=
EXTT5=
EXTT6=
EXTT7=
EXTT8=
EXTT9=
PLAYORDER=
